<svg width="40" height="40" viewBox="0 0 40 40" fill="none" xmlns="http://www.w3.org/2000/svg">
<g filter="url(#filter0_ddddii_1123_361)">
<rect x="4" y="4" width="31.2156" height="31.2156" rx="5.45333" fill="url(#paint0_linear_1123_361)"/>
</g>
<path d="M19.1297 14.0161C15.4572 19.6153 17.3803 25.7343 23.6539 28.5826C23.7256 28.6152 23.7983 28.6454 23.8666 28.6806C24.0612 28.7811 23.9992 29.0266 23.7972 29.1113C21.2606 30.1748 16.4483 29.4483 13.4925 26.5076C9.86792 22.9018 9.57726 17.3749 12.7318 13.4895C15.5987 9.95828 20.4965 9.07303 23.4682 9.96445C23.797 10.0631 23.7977 10.4916 23.4878 10.6393C21.7621 11.4614 20.2303 12.4487 19.1297 14.0161Z" fill="white"/>
<path d="M21.9743 15.9292C20.3629 20.5481 21.5406 24.2795 25.2428 27.2583C25.5231 27.4838 25.4031 27.8937 25.0498 27.826C22.4274 27.324 19.3786 23.5489 19.048 20.1327C18.7023 16.5594 21.5528 12.3492 24.8314 11.3606C25.2144 11.2451 25.3849 11.6976 25.0733 11.9485C23.6933 13.06 22.6501 14.331 21.9743 15.9292Z" fill="white"/>
<path d="M24.5805 14.4396C25.2486 13.6145 25.6899 13.1249 26.1152 12.8045C26.4257 12.5707 26.7149 12.9509 26.5 13.2747C23.8002 17.3424 23.7288 21.3799 26.3789 25.4745C26.605 25.8238 26.2797 26.1989 25.9556 25.9379C23.1146 23.6499 21.6291 18.5217 24.5805 14.4396Z" fill="white"/>
<path d="M26.3065 17.573C26.5243 16.6606 26.8161 15.812 27.2781 15.0482C27.5061 14.6713 27.9167 14.9564 27.7643 15.3698C26.6905 18.2815 26.8064 21.176 28.2924 24.0834C28.4591 24.4097 28.204 24.6783 27.9519 24.4124C26.774 23.1703 25.7858 20.247 26.3065 17.573Z" fill="white"/>
<defs>
<filter id="filter0_ddddii_1123_361" x="0.615172" y="0.615172" width="38.5486" height="38.5496" filterUnits="userSpaceOnUse" color-interpolation-filters="sRGB">
<feFlood flood-opacity="0" result="BackgroundImageFix"/>
<feColorMatrix in="SourceAlpha" type="matrix" values="0 0 0 0 0 0 0 0 0 0 0 0 0 0 0 0 0 0 127 0" result="hardAlpha"/>
<feOffset dx="1.12828" dy="1.12828"/>
<feGaussianBlur stdDeviation="1.41034"/>
<feColorMatrix type="matrix" values="0 0 0 0 0.104167 0 0 0 0 0.104167 0 0 0 0 0.104167 0 0 0 0.9 0"/>
<feBlend mode="normal" in2="BackgroundImageFix" result="effect1_dropShadow_1123_361"/>
<feColorMatrix in="SourceAlpha" type="matrix" values="0 0 0 0 0 0 0 0 0 0 0 0 0 0 0 0 0 0 127 0" result="hardAlpha"/>
<feOffset dx="-1.12828" dy="-1.12828"/>
<feGaussianBlur stdDeviation="1.12828"/>
<feColorMatrix type="matrix" values="0 0 0 0 0 0 0 0 0 0 0 0 0 0 0 0 0 0 0.9 0"/>
<feBlend mode="normal" in2="effect1_dropShadow_1123_361" result="effect2_dropShadow_1123_361"/>
<feColorMatrix in="SourceAlpha" type="matrix" values="0 0 0 0 0 0 0 0 0 0 0 0 0 0 0 0 0 0 127 0" result="hardAlpha"/>
<feOffset dx="1.12828" dy="-1.12828"/>
<feGaussianBlur stdDeviation="1.12828"/>
<feColorMatrix type="matrix" values="0 0 0 0 0.105882 0 0 0 0 0.105882 0 0 0 0 0.105882 0 0 0 0.2 0"/>
<feBlend mode="normal" in2="effect2_dropShadow_1123_361" result="effect3_dropShadow_1123_361"/>
<feColorMatrix in="SourceAlpha" type="matrix" values="0 0 0 0 0 0 0 0 0 0 0 0 0 0 0 0 0 0 127 0" result="hardAlpha"/>
<feOffset dx="-1.12828" dy="1.12828"/>
<feGaussianBlur stdDeviation="1.12828"/>
<feColorMatrix type="matrix" values="0 0 0 0 0.105882 0 0 0 0 0.105882 0 0 0 0 0.105882 0 0 0 0.2 0"/>
<feBlend mode="normal" in2="effect3_dropShadow_1123_361" result="effect4_dropShadow_1123_361"/>
<feBlend mode="normal" in="SourceGraphic" in2="effect4_dropShadow_1123_361" result="shape"/>
<feColorMatrix in="SourceAlpha" type="matrix" values="0 0 0 0 0 0 0 0 0 0 0 0 0 0 0 0 0 0 127 0" result="hardAlpha"/>
<feOffset dx="-0.188046" dy="-0.188046"/>
<feGaussianBlur stdDeviation="0.188046"/>
<feComposite in2="hardAlpha" operator="arithmetic" k2="-1" k3="1"/>
<feColorMatrix type="matrix" values="0 0 0 0 0.105882 0 0 0 0 0.105882 0 0 0 0 0.105882 0 0 0 0.5 0"/>
<feBlend mode="normal" in2="shape" result="effect5_innerShadow_1123_361"/>
<feColorMatrix in="SourceAlpha" type="matrix" values="0 0 0 0 0 0 0 0 0 0 0 0 0 0 0 0 0 0 127 0" result="hardAlpha"/>
<feOffset dx="0.188046" dy="0.188046"/>
<feGaussianBlur stdDeviation="0.188046"/>
<feComposite in2="hardAlpha" operator="arithmetic" k2="-1" k3="1"/>
<feColorMatrix type="matrix" values="0 0 0 0 0 0 0 0 0 0 0 0 0 0 0 0 0 0 0.3 0"/>
<feBlend mode="normal" in2="effect5_innerShadow_1123_361" result="effect6_innerShadow_1123_361"/>
</filter>
<linearGradient id="paint0_linear_1123_361" x1="4" y1="4" x2="35.2156" y2="35.2156" gradientUnits="userSpaceOnUse">
<stop stop-color="#2F2F2F"/>
<stop offset="1"/>
</linearGradient>
</defs>
</svg>
