<svg width="126" height="40" viewBox="0 0 126 40" fill="none" xmlns="http://www.w3.org/2000/svg">
    <path
        d="M51.9043 28.657C50.677 28.657 49.5807 28.4852 48.6152 28.1415C47.6498 27.7815 46.8316 27.2579 46.1607 26.5706C45.4898 25.867 44.9743 24.9997 44.6143 23.9688C44.2543 22.9379 44.0743 21.7598 44.0743 20.4343C44.0743 19.0598 44.2543 17.8407 44.6143 16.7771C44.9907 15.7135 45.5143 14.8135 46.1852 14.0771C46.8561 13.3244 47.6579 12.7598 48.5907 12.3835C49.5234 12.0071 50.5625 11.8189 51.7079 11.8189C52.5915 11.8189 53.4097 11.9335 54.1624 12.1626C54.9152 12.3917 55.5615 12.7353 56.1015 13.1935C56.6579 13.6353 57.0915 14.1753 57.4024 14.8135C57.7133 15.4353 57.8769 16.1471 57.8933 16.9489L54.997 17.7098C55.0133 16.9734 54.8579 16.3598 54.5306 15.8689C54.2033 15.378 53.7779 15.0098 53.2543 14.7644C52.747 14.5189 52.1988 14.3962 51.6097 14.3962C51.0861 14.3962 50.5625 14.5026 50.0388 14.7153C49.5316 14.928 49.0734 15.2635 48.6643 15.7216C48.2552 16.1798 47.9279 16.7853 47.6825 17.538C47.437 18.2743 47.3143 19.1825 47.3143 20.2625C47.3143 21.637 47.5107 22.7498 47.9034 23.6007C48.3125 24.4516 48.8688 25.0816 49.5725 25.4906C50.2925 25.8834 51.1025 26.0797 52.0024 26.0797C52.9188 26.0797 53.647 25.8997 54.187 25.5397C54.727 25.1634 55.1197 24.6725 55.3651 24.067C55.6106 23.4452 55.7497 22.7743 55.7824 22.0543L58.5069 22.5207C58.4906 23.3716 58.3597 24.1734 58.1142 24.9261C57.8688 25.6788 57.4842 26.3334 56.9606 26.8897C56.4533 27.4461 55.7824 27.8797 54.9479 28.1906C54.1133 28.5015 53.0988 28.657 51.9043 28.657ZM66.5473 28.657C65.5164 28.657 64.5918 28.5097 63.7737 28.2152C62.9719 27.9206 62.2928 27.4952 61.7364 26.9388C61.1801 26.3661 60.7546 25.6788 60.4601 24.877C60.1655 24.0752 60.0182 23.167 60.0182 22.1525C60.0182 21.138 60.1573 20.2052 60.4355 19.3543C60.7301 18.5034 61.1473 17.7671 61.6873 17.1453C62.2273 16.5234 62.8819 16.0407 63.6509 15.6971C64.4364 15.3535 65.3282 15.1816 66.3264 15.1816C67.2591 15.1816 68.0936 15.3371 68.83 15.648C69.5663 15.9589 70.1882 16.4253 70.6954 17.0471C71.2027 17.6525 71.5791 18.4134 71.8245 19.3298C72.07 20.2298 72.1518 21.277 72.07 22.4716L62.031 22.5452V20.7534L70.2782 20.6798L69.1982 21.6861C69.2963 20.7534 69.2227 19.9925 68.9773 19.4034C68.7318 18.798 68.38 18.3562 67.9218 18.078C67.4636 17.7834 66.94 17.6362 66.3509 17.6362C65.68 17.6362 65.0909 17.8162 64.5837 18.1762C64.0764 18.5198 63.6837 19.0271 63.4055 19.698C63.1437 20.3525 63.0128 21.1543 63.0128 22.1034C63.0128 23.527 63.3237 24.5906 63.9455 25.2943C64.5837 25.9979 65.4509 26.3497 66.5473 26.3497C67.0382 26.3497 67.4473 26.2925 67.7745 26.1779C68.1182 26.047 68.4045 25.8834 68.6336 25.687C68.8627 25.4743 69.0427 25.237 69.1736 24.9752C69.3209 24.7134 69.4354 24.4352 69.5173 24.1407L72.2172 24.7543C72.0863 25.3597 71.8736 25.8997 71.5791 26.3743C71.2845 26.8488 70.9 27.2579 70.4254 27.6015C69.9673 27.9452 69.4191 28.207 68.7809 28.387C68.1427 28.567 67.3982 28.657 66.5473 28.657ZM74.5721 28.3379V10.8862H77.6157V20.6798C78.1721 20.3361 78.7039 19.9598 79.2111 19.5507C79.7184 19.1252 80.1848 18.6834 80.6102 18.2252C81.0357 17.7671 81.412 17.3089 81.7393 16.8507C82.0666 16.3762 82.3366 15.9262 82.5493 15.5007H86.1084C85.8465 16.1389 85.5029 16.7689 85.0775 17.3907C84.652 18.0125 84.1529 18.5852 83.5802 19.1089C83.0238 19.6325 82.3938 20.0907 81.6902 20.4834C80.9866 20.8598 80.2339 21.1216 79.432 21.2689V21.6125C80.4466 21.4652 81.2975 21.5143 81.9848 21.7598C82.672 22.0052 83.2529 22.3734 83.7275 22.8643C84.202 23.3552 84.5947 23.9279 84.9056 24.5825C85.2329 25.2206 85.5356 25.8752 85.8138 26.5461L86.452 28.3379H83.0402L82.6475 27.1597C82.3366 26.3415 82.0093 25.6216 81.6657 24.9997C81.3384 24.3616 80.9211 23.8707 80.4139 23.527C79.923 23.167 79.2848 22.987 78.4993 22.987H77.6157V28.3379H74.5721ZM92.6119 28.657C91.1392 28.657 90.0265 28.1579 89.2738 27.1597C88.5374 26.1452 88.1692 24.6152 88.1692 22.5698V15.5007H91.2865V22.2261C91.2865 23.5188 91.4829 24.4843 91.8756 25.1225C92.2683 25.7606 92.8738 26.0797 93.6919 26.0797C94.1665 26.0797 94.5837 25.9652 94.9437 25.7361C95.3037 25.4906 95.6146 25.1552 95.8765 24.7297C96.1383 24.2879 96.3428 23.7807 96.4901 23.2079C96.6537 22.6352 96.7519 22.0052 96.7846 21.318V15.5007H99.8773V23.0607V28.3379H97.3246L97.3737 24.2879H96.9319C96.7192 25.3188 96.4164 26.1534 96.0237 26.7915C95.6474 27.4297 95.181 27.9043 94.6246 28.2152C94.0683 28.5097 93.3974 28.657 92.6119 28.657ZM103.046 28.3379V21.907V15.5007H105.648L105.599 19.9189H106.041C106.188 18.8716 106.417 18.0043 106.728 17.3171C107.039 16.6134 107.472 16.0898 108.029 15.7462C108.585 15.3862 109.272 15.2062 110.09 15.2062C110.254 15.2062 110.426 15.2144 110.606 15.2307C110.802 15.2471 111.015 15.288 111.244 15.3535L111.121 18.618C110.86 18.5198 110.59 18.4543 110.311 18.4216C110.05 18.3725 109.804 18.348 109.575 18.348C108.937 18.348 108.381 18.5116 107.906 18.8389C107.448 19.1662 107.071 19.6325 106.777 20.238C106.499 20.827 106.286 21.5307 106.139 22.3489V28.3379H103.046ZM115.854 28.657C115.151 28.657 114.521 28.5261 113.964 28.2643C113.408 27.9861 112.966 27.577 112.639 27.037C112.328 26.497 112.173 25.8261 112.173 25.0243C112.173 24.3534 112.295 23.7807 112.541 23.3061C112.803 22.8316 113.187 22.447 113.694 22.1525C114.202 21.8416 114.832 21.5879 115.584 21.3916C116.337 21.1789 117.221 20.9989 118.235 20.8516C118.792 20.7698 119.242 20.688 119.585 20.6061C119.945 20.5243 120.207 20.4016 120.371 20.238C120.534 20.058 120.616 19.7961 120.616 19.4525C120.616 18.9452 120.436 18.5116 120.076 18.1516C119.733 17.7753 119.168 17.5871 118.383 17.5871C117.908 17.5871 117.45 17.6689 117.008 17.8325C116.583 17.9962 116.214 18.258 115.904 18.618C115.593 18.9616 115.38 19.4198 115.265 19.9925L112.492 19.1334C112.672 18.4789 112.934 17.9143 113.277 17.4398C113.621 16.9489 114.046 16.5316 114.554 16.188C115.061 15.8444 115.642 15.5907 116.296 15.4271C116.951 15.2635 117.671 15.1816 118.456 15.1816C119.651 15.1816 120.633 15.378 121.402 15.7707C122.171 16.1471 122.743 16.7444 123.12 17.5625C123.496 18.3643 123.684 19.4034 123.684 20.6798V23.0852C123.684 23.6416 123.693 24.2225 123.709 24.8279C123.742 25.417 123.774 26.0143 123.807 26.6197C123.856 27.2088 123.913 27.7815 123.979 28.3379H121.205C121.14 27.8797 121.083 27.3888 121.034 26.8652C120.984 26.3415 120.944 25.8097 120.911 25.2697H120.518C120.289 25.8915 119.962 26.4643 119.536 26.9879C119.111 27.4952 118.587 27.9043 117.965 28.2152C117.36 28.5097 116.656 28.657 115.854 28.657ZM117.082 26.3743C117.409 26.3743 117.736 26.317 118.064 26.2025C118.407 26.0879 118.743 25.9161 119.07 25.687C119.397 25.4579 119.7 25.1797 119.978 24.8525C120.256 24.5088 120.494 24.1079 120.69 23.6497L120.641 21.4652L121.23 21.5634C120.952 21.7925 120.608 21.9725 120.199 22.1034C119.79 22.2343 119.356 22.3325 118.898 22.3979C118.456 22.4634 118.006 22.5452 117.548 22.6434C117.106 22.7252 116.705 22.8398 116.345 22.987C115.985 23.1179 115.699 23.3143 115.486 23.5761C115.274 23.8216 115.167 24.1652 115.167 24.607C115.167 25.1634 115.347 25.597 115.707 25.9079C116.067 26.2188 116.525 26.3743 117.082 26.3743Z"
        fill="white" />
    <g filter="url(#filter0_ddddii_1123_397)">
        <rect x="4" y="4" width="31.2156" height="31.2156" rx="5.45333" fill="url(#paint0_linear_1123_397)" />
    </g>
    <path
        d="M19.1297 14.0161C15.4572 19.6153 17.3803 25.7343 23.6539 28.5826C23.7256 28.6152 23.7983 28.6454 23.8666 28.6806C24.0612 28.7811 23.9992 29.0266 23.7972 29.1113C21.2606 30.1748 16.4483 29.4483 13.4925 26.5076C9.86792 22.9018 9.57726 17.3749 12.7318 13.4895C15.5987 9.95828 20.4965 9.07303 23.4682 9.96445C23.797 10.0631 23.7977 10.4916 23.4878 10.6393C21.7621 11.4614 20.2303 12.4487 19.1297 14.0161Z"
        fill="white" />
    <path
        d="M21.9743 15.9292C20.3629 20.5481 21.5406 24.2795 25.2428 27.2583C25.5231 27.4838 25.4031 27.8937 25.0498 27.826C22.4274 27.324 19.3786 23.5489 19.048 20.1327C18.7023 16.5594 21.5528 12.3492 24.8314 11.3606C25.2144 11.2451 25.3849 11.6976 25.0733 11.9485C23.6933 13.06 22.6501 14.331 21.9743 15.9292Z"
        fill="white" />
    <path
        d="M24.5805 14.4396C25.2486 13.6145 25.6899 13.1249 26.1152 12.8045C26.4257 12.5707 26.7149 12.9509 26.5 13.2747C23.8002 17.3424 23.7288 21.3799 26.3789 25.4745C26.605 25.8238 26.2797 26.1989 25.9556 25.9379C23.1146 23.6499 21.6291 18.5217 24.5805 14.4396Z"
        fill="white" />
    <path
        d="M26.3065 17.573C26.5243 16.6606 26.8161 15.812 27.2781 15.0482C27.5061 14.6713 27.9167 14.9564 27.7643 15.3698C26.6905 18.2815 26.8064 21.176 28.2924 24.0834C28.4591 24.4097 28.204 24.6783 27.9519 24.4124C26.774 23.1703 25.7858 20.247 26.3065 17.573Z"
        fill="white" />
    <defs>
        <filter id="filter0_ddddii_1123_397" x="0.615172" y="0.615172" width="38.5486" height="38.5496"
            filterUnits="userSpaceOnUse" color-interpolation-filters="sRGB">
            <feFlood flood-opacity="0" result="BackgroundImageFix" />
            <feColorMatrix in="SourceAlpha" type="matrix" values="0 0 0 0 0 0 0 0 0 0 0 0 0 0 0 0 0 0 127 0"
                result="hardAlpha" />
            <feOffset dx="1.12828" dy="1.12828" />
            <feGaussianBlur stdDeviation="1.41034" />
            <feColorMatrix type="matrix" values="0 0 0 0 0.104167 0 0 0 0 0.104167 0 0 0 0 0.104167 0 0 0 0.9 0" />
            <feBlend mode="normal" in2="BackgroundImageFix" result="effect1_dropShadow_1123_397" />
            <feColorMatrix in="SourceAlpha" type="matrix" values="0 0 0 0 0 0 0 0 0 0 0 0 0 0 0 0 0 0 127 0"
                result="hardAlpha" />
            <feOffset dx="-1.12828" dy="-1.12828" />
            <feGaussianBlur stdDeviation="1.12828" />
            <feColorMatrix type="matrix" values="0 0 0 0 0 0 0 0 0 0 0 0 0 0 0 0 0 0 0.9 0" />
            <feBlend mode="normal" in2="effect1_dropShadow_1123_397" result="effect2_dropShadow_1123_397" />
            <feColorMatrix in="SourceAlpha" type="matrix" values="0 0 0 0 0 0 0 0 0 0 0 0 0 0 0 0 0 0 127 0"
                result="hardAlpha" />
            <feOffset dx="1.12828" dy="-1.12828" />
            <feGaussianBlur stdDeviation="1.12828" />
            <feColorMatrix type="matrix" values="0 0 0 0 0.105882 0 0 0 0 0.105882 0 0 0 0 0.105882 0 0 0 0.2 0" />
            <feBlend mode="normal" in2="effect2_dropShadow_1123_397" result="effect3_dropShadow_1123_397" />
            <feColorMatrix in="SourceAlpha" type="matrix" values="0 0 0 0 0 0 0 0 0 0 0 0 0 0 0 0 0 0 127 0"
                result="hardAlpha" />
            <feOffset dx="-1.12828" dy="1.12828" />
            <feGaussianBlur stdDeviation="1.12828" />
            <feColorMatrix type="matrix" values="0 0 0 0 0.105882 0 0 0 0 0.105882 0 0 0 0 0.105882 0 0 0 0.2 0" />
            <feBlend mode="normal" in2="effect3_dropShadow_1123_397" result="effect4_dropShadow_1123_397" />
            <feBlend mode="normal" in="SourceGraphic" in2="effect4_dropShadow_1123_397" result="shape" />
            <feColorMatrix in="SourceAlpha" type="matrix" values="0 0 0 0 0 0 0 0 0 0 0 0 0 0 0 0 0 0 127 0"
                result="hardAlpha" />
            <feOffset dx="-0.188046" dy="-0.188046" />
            <feGaussianBlur stdDeviation="0.188046" />
            <feComposite in2="hardAlpha" operator="arithmetic" k2="-1" k3="1" />
            <feColorMatrix type="matrix" values="0 0 0 0 0.105882 0 0 0 0 0.105882 0 0 0 0 0.105882 0 0 0 0.5 0" />
            <feBlend mode="normal" in2="shape" result="effect5_innerShadow_1123_397" />
            <feColorMatrix in="SourceAlpha" type="matrix" values="0 0 0 0 0 0 0 0 0 0 0 0 0 0 0 0 0 0 127 0"
                result="hardAlpha" />
            <feOffset dx="0.188046" dy="0.188046" />
            <feGaussianBlur stdDeviation="0.188046" />
            <feComposite in2="hardAlpha" operator="arithmetic" k2="-1" k3="1" />
            <feColorMatrix type="matrix" values="0 0 0 0 0 0 0 0 0 0 0 0 0 0 0 0 0 0 0.3 0" />
            <feBlend mode="normal" in2="effect5_innerShadow_1123_397" result="effect6_innerShadow_1123_397" />
        </filter>
        <linearGradient id="paint0_linear_1123_397" x1="4" y1="4" x2="35.2156" y2="35.2156"
            gradientUnits="userSpaceOnUse">
            <stop stop-color="#2F2F2F" />
            <stop offset="1" />
        </linearGradient>
    </defs>
</svg>