<svg width="24" height="24" viewBox="0 0 24 24" fill="none" xmlns="http://www.w3.org/2000/svg">
<g clip-path="url(#clip0_808_1304)">
<mask id="mask0_808_1304" style="mask-type:luminance" maskUnits="userSpaceOnUse" x="0" y="0" width="24" height="24">
<path d="M24 0H0V24H24V0Z" fill="white"/>
</mask>
<g mask="url(#mask0_808_1304)">
<mask id="mask1_808_1304" style="mask-type:luminance" maskUnits="userSpaceOnUse" x="0" y="0" width="24" height="24">
<path d="M24 0H0V24H24V0Z" fill="white"/>
</mask>
<g mask="url(#mask1_808_1304)">
<path d="M14.4024 9.59961H9.60156V14.4004H14.4024V9.59961Z" fill="#9EA3A2"/>
<path d="M19.203 4.80078H14.4023V9.60153H19.203V4.80078Z" fill="#9EA3A2"/>
<path d="M19.203 14.4004H14.4023V19.2011H19.203V14.4004Z" fill="#9EA3A2"/>
<path d="M24 0H19.1992V4.80075H24V0Z" fill="#9EA3A2"/>
<path d="M24 19.1992H19.1992V24H24V19.1992Z" fill="#9EA3A2"/>
<path d="M4.80075 19.1992V14.4004V9.59962V4.80075V0H0V4.80075V9.59962V14.4004V19.1992V24H4.80075H9.59963H14.4004V19.1992H9.59963H4.80075Z" fill="#9EA3A2"/>
</g>
</g>
</g>
<defs>
<clipPath id="clip0_808_1304">
<rect width="24" height="24" fill="white"/>
</clipPath>
</defs>
</svg>
