<svg width="125" height="38" viewBox="0 0 125 38" fill="none" xmlns="http://www.w3.org/2000/svg">
    <path
        d="M50.9043 27.3191C49.677 27.3191 48.5807 27.1473 47.6152 26.8036C46.6498 26.4436 45.8316 25.92 45.1607 25.2327C44.4898 24.5291 43.9743 23.6618 43.6143 22.6309C43.2543 21.6 43.0743 20.4219 43.0743 19.0964C43.0743 17.7219 43.2543 16.5028 43.6143 15.4392C43.9907 14.3756 44.5143 13.4756 45.1852 12.7392C45.8561 11.9865 46.6579 11.422 47.5907 11.0456C48.5234 10.6692 49.5625 10.481 50.7079 10.481C51.5915 10.481 52.4097 10.5956 53.1624 10.8247C53.9152 11.0538 54.5615 11.3974 55.1015 11.8556C55.6579 12.2974 56.0915 12.8374 56.4024 13.4756C56.7133 14.0974 56.8769 14.8092 56.8933 15.611L53.997 16.3719C54.0133 15.6356 53.8579 15.0219 53.5306 14.531C53.2033 14.0401 52.7779 13.6719 52.2543 13.4265C51.747 13.181 51.1988 13.0583 50.6097 13.0583C50.0861 13.0583 49.5625 13.1647 49.0388 13.3774C48.5316 13.5901 48.0734 13.9256 47.6643 14.3837C47.2552 14.8419 46.9279 15.4474 46.6825 16.2001C46.437 16.9364 46.3143 17.8446 46.3143 18.9246C46.3143 20.2991 46.5107 21.4119 46.9034 22.2628C47.3125 23.1137 47.8688 23.7437 48.5725 24.1528C49.2925 24.5455 50.1025 24.7418 51.0024 24.7418C51.9188 24.7418 52.647 24.5618 53.187 24.2018C53.727 23.8255 54.1197 23.3346 54.3651 22.7291C54.6106 22.1073 54.7497 21.4364 54.7824 20.7164L57.5069 21.1828C57.4906 22.0337 57.3597 22.8355 57.1142 23.5882C56.8688 24.3409 56.4842 24.9955 55.9606 25.5518C55.4533 26.1082 54.7824 26.5418 53.9479 26.8527C53.1133 27.1636 52.0988 27.3191 50.9043 27.3191ZM65.5473 27.3191C64.5164 27.3191 63.5918 27.1718 62.7737 26.8773C61.9719 26.5827 61.2928 26.1573 60.7364 25.6009C60.1801 25.0282 59.7546 24.3409 59.4601 23.5391C59.1655 22.7373 59.0182 21.8291 59.0182 20.8146C59.0182 19.8001 59.1573 18.8673 59.4355 18.0164C59.7301 17.1655 60.1473 16.4292 60.6873 15.8074C61.2273 15.1856 61.8819 14.7028 62.6509 14.3592C63.4364 14.0156 64.3282 13.8437 65.3264 13.8437C66.2591 13.8437 67.0936 13.9992 67.83 14.3101C68.5663 14.621 69.1882 15.0874 69.6954 15.7092C70.2027 16.3146 70.5791 17.0755 70.8245 17.9919C71.07 18.8919 71.1518 19.9392 71.07 21.1337L61.031 21.2073V19.4155L69.2782 19.3419L68.1982 20.3482C68.2963 19.4155 68.2227 18.6546 67.9773 18.0655C67.7318 17.4601 67.38 17.0183 66.9218 16.7401C66.4636 16.4455 65.94 16.2983 65.3509 16.2983C64.68 16.2983 64.0909 16.4783 63.5837 16.8383C63.0764 17.1819 62.6837 17.6892 62.4055 18.3601C62.1437 19.0146 62.0128 19.8164 62.0128 20.7655C62.0128 22.1891 62.3237 23.2528 62.9455 23.9564C63.5837 24.66 64.4509 25.0118 65.5473 25.0118C66.0382 25.0118 66.4473 24.9546 66.7745 24.84C67.1182 24.7091 67.4045 24.5455 67.6336 24.3491C67.8627 24.1364 68.0427 23.8991 68.1736 23.6373C68.3209 23.3755 68.4354 23.0973 68.5173 22.8028L71.2172 23.4164C71.0863 24.0218 70.8736 24.5618 70.5791 25.0364C70.2845 25.5109 69.9 25.92 69.4254 26.2636C68.9673 26.6073 68.4191 26.8691 67.7809 27.0491C67.1427 27.2291 66.3982 27.3191 65.5473 27.3191ZM73.5721 27V9.54833H76.6157V19.3419C77.1721 18.9983 77.7039 18.6219 78.2111 18.2128C78.7184 17.7874 79.1848 17.3455 79.6102 16.8874C80.0357 16.4292 80.412 15.971 80.7393 15.5128C81.0666 15.0383 81.3366 14.5883 81.5493 14.1628H85.1084C84.8465 14.801 84.5029 15.431 84.0775 16.0528C83.652 16.6746 83.1529 17.2474 82.5802 17.771C82.0238 18.2946 81.3938 18.7528 80.6902 19.1455C79.9866 19.5219 79.2339 19.7837 78.432 19.931V20.2746C79.4466 20.1273 80.2975 20.1764 80.9848 20.4219C81.672 20.6673 82.2529 21.0355 82.7275 21.5264C83.202 22.0173 83.5947 22.59 83.9056 23.2446C84.2329 23.8828 84.5356 24.5373 84.8138 25.2082L85.452 27H82.0402L81.6475 25.8218C81.3366 25.0037 81.0093 24.2837 80.6657 23.6618C80.3384 23.0237 79.9211 22.5328 79.4139 22.1891C78.923 21.8291 78.2848 21.6491 77.4993 21.6491H76.6157V27H73.5721ZM91.6119 27.3191C90.1392 27.3191 89.0265 26.82 88.2738 25.8218C87.5374 24.8073 87.1692 23.2773 87.1692 21.2319V14.1628H90.2865V20.8882C90.2865 22.181 90.4829 23.1464 90.8756 23.7846C91.2683 24.4227 91.8738 24.7418 92.6919 24.7418C93.1665 24.7418 93.5837 24.6273 93.9437 24.3982C94.3037 24.1528 94.6146 23.8173 94.8765 23.3918C95.1383 22.95 95.3428 22.4428 95.4901 21.87C95.6537 21.2973 95.7519 20.6673 95.7846 19.9801V14.1628H98.8773V21.7228V27H96.3246L96.3737 22.95H95.9319C95.7192 23.9809 95.4164 24.8155 95.0237 25.4536C94.6474 26.0918 94.181 26.5664 93.6246 26.8773C93.0683 27.1718 92.3974 27.3191 91.6119 27.3191ZM102.046 27V20.5691V14.1628H104.648L104.599 18.581H105.041C105.188 17.5337 105.417 16.6665 105.728 15.9792C106.039 15.2756 106.472 14.7519 107.029 14.4083C107.585 14.0483 108.272 13.8683 109.09 13.8683C109.254 13.8683 109.426 13.8765 109.606 13.8928C109.802 13.9092 110.015 13.9501 110.244 14.0156L110.121 17.2801C109.86 17.1819 109.59 17.1164 109.311 17.0837C109.05 17.0346 108.804 17.0101 108.575 17.0101C107.937 17.0101 107.381 17.1737 106.906 17.501C106.448 17.8283 106.071 18.2946 105.777 18.9001C105.499 19.4892 105.286 20.1928 105.139 21.011V27H102.046ZM114.854 27.3191C114.151 27.3191 113.521 27.1882 112.964 26.9264C112.408 26.6482 111.966 26.2391 111.639 25.6991C111.328 25.1591 111.173 24.4882 111.173 23.6864C111.173 23.0155 111.295 22.4428 111.541 21.9682C111.803 21.4937 112.187 21.1091 112.694 20.8146C113.202 20.5037 113.832 20.2501 114.584 20.0537C115.337 19.841 116.221 19.661 117.235 19.5137C117.792 19.4319 118.242 19.3501 118.585 19.2682C118.945 19.1864 119.207 19.0637 119.371 18.9001C119.534 18.7201 119.616 18.4583 119.616 18.1146C119.616 17.6074 119.436 17.1737 119.076 16.8137C118.733 16.4374 118.168 16.2492 117.383 16.2492C116.908 16.2492 116.45 16.331 116.008 16.4946C115.583 16.6583 115.214 16.9201 114.904 17.2801C114.593 17.6237 114.38 18.0819 114.265 18.6546L111.492 17.7955C111.672 17.141 111.934 16.5765 112.277 16.1019C112.621 15.611 113.046 15.1937 113.554 14.8501C114.061 14.5065 114.642 14.2528 115.296 14.0892C115.951 13.9256 116.671 13.8437 117.456 13.8437C118.651 13.8437 119.633 14.0401 120.402 14.4328C121.171 14.8092 121.743 15.4065 122.12 16.2246C122.496 17.0264 122.684 18.0655 122.684 19.3419V21.7473C122.684 22.3037 122.693 22.8846 122.709 23.49C122.742 24.0791 122.774 24.6764 122.807 25.2818C122.856 25.8709 122.913 26.4436 122.979 27H120.205C120.14 26.5418 120.083 26.0509 120.034 25.5273C119.984 25.0037 119.944 24.4718 119.911 23.9318H119.518C119.289 24.5537 118.962 25.1264 118.536 25.65C118.111 26.1573 117.587 26.5664 116.965 26.8773C116.36 27.1718 115.656 27.3191 114.854 27.3191ZM116.082 25.0364C116.409 25.0364 116.736 24.9791 117.064 24.8646C117.407 24.75 117.743 24.5782 118.07 24.3491C118.397 24.12 118.7 23.8418 118.978 23.5146C119.256 23.1709 119.494 22.77 119.69 22.3119L119.641 20.1273L120.23 20.2255C119.952 20.4546 119.608 20.6346 119.199 20.7655C118.79 20.8964 118.356 20.9946 117.898 21.0601C117.456 21.1255 117.006 21.2073 116.548 21.3055C116.106 21.3873 115.705 21.5019 115.345 21.6491C114.985 21.78 114.699 21.9764 114.486 22.2382C114.274 22.4837 114.167 22.8273 114.167 23.2691C114.167 23.8255 114.347 24.2591 114.707 24.57C115.067 24.8809 115.525 25.0364 116.082 25.0364Z"
        fill="black" />
    <g filter="url(#filter0_ddddii_1123_398)">
        <rect x="4" y="4" width="30" height="30" rx="5.24096" fill="url(#paint0_linear_1123_398)" />
    </g>
    <path
        d="M17.8426 12.9033C14.3131 18.2845 16.1613 24.1651 22.1905 26.9024C22.2595 26.9337 22.3293 26.9628 22.3949 26.9966C22.582 27.0932 22.5224 27.3292 22.3283 27.4106C19.8904 28.4327 15.2656 27.7344 12.4249 24.9083C8.94155 21.4429 8.6622 16.1313 11.6938 12.3972C14.4491 9.00356 19.1561 8.15279 22.0121 9.00949C22.3281 9.10428 22.3288 9.51613 22.0309 9.65801C20.3724 10.4481 18.9003 11.397 17.8426 12.9033Z"
        fill="black" />
    <path
        d="M20.5741 14.7414C19.0254 19.1804 20.1572 22.7665 23.7152 25.6292C23.9846 25.846 23.8693 26.2399 23.5297 26.1748C21.0095 25.6923 18.0794 22.0643 17.7618 18.7812C17.4295 15.347 20.169 11.3009 23.3199 10.3508C23.688 10.2398 23.8518 10.6746 23.5524 10.9158C22.2261 11.984 21.2236 13.2055 20.5741 14.7414Z"
        fill="black" />
    <path
        d="M23.0802 13.3098C23.7223 12.5168 24.1464 12.0464 24.5552 11.7384C24.8535 11.5137 25.1315 11.8791 24.9249 12.1904C22.3303 16.0996 22.2617 19.9798 24.8086 23.9149C25.0259 24.2507 24.7132 24.6111 24.4018 24.3603C21.6714 22.1614 20.2438 17.2329 23.0802 13.3098Z"
        fill="black" />
    <path
        d="M24.7384 16.575C24.9478 15.6982 25.2282 14.8826 25.6722 14.1486C25.8913 13.7863 26.2859 14.0604 26.1394 14.4576C25.1075 17.256 25.2189 20.0377 26.647 22.8319C26.8072 23.1454 26.562 23.4036 26.3197 23.148C25.1877 21.9543 24.2381 19.1449 24.7384 16.575Z"
        fill="black" />
    <defs>
        <filter id="filter0_ddddii_1123_398" x="0.746988" y="0.746988" width="37.0482" height="37.0482"
            filterUnits="userSpaceOnUse" color-interpolation-filters="sRGB">
            <feFlood flood-opacity="0" result="BackgroundImageFix" />
            <feColorMatrix in="SourceAlpha" type="matrix" values="0 0 0 0 0 0 0 0 0 0 0 0 0 0 0 0 0 0 127 0"
                result="hardAlpha" />
            <feOffset dx="1.08434" dy="1.08434" />
            <feGaussianBlur stdDeviation="1.35542" />
            <feColorMatrix type="matrix" values="0 0 0 0 0.709804 0 0 0 0 0.709804 0 0 0 0 0.709804 0 0 0 0.9 0" />
            <feBlend mode="normal" in2="BackgroundImageFix" result="effect1_dropShadow_1123_398" />
            <feColorMatrix in="SourceAlpha" type="matrix" values="0 0 0 0 0 0 0 0 0 0 0 0 0 0 0 0 0 0 127 0"
                result="hardAlpha" />
            <feOffset dx="-1.08434" dy="-1.08434" />
            <feGaussianBlur stdDeviation="1.08434" />
            <feColorMatrix type="matrix" values="0 0 0 0 1 0 0 0 0 1 0 0 0 0 1 0 0 0 0.9 0" />
            <feBlend mode="normal" in2="effect1_dropShadow_1123_398" result="effect2_dropShadow_1123_398" />
            <feColorMatrix in="SourceAlpha" type="matrix" values="0 0 0 0 0 0 0 0 0 0 0 0 0 0 0 0 0 0 127 0"
                result="hardAlpha" />
            <feOffset dx="1.08434" dy="-1.08434" />
            <feGaussianBlur stdDeviation="1.08434" />
            <feColorMatrix type="matrix" values="0 0 0 0 0.709804 0 0 0 0 0.709804 0 0 0 0 0.709804 0 0 0 0.2 0" />
            <feBlend mode="normal" in2="effect2_dropShadow_1123_398" result="effect3_dropShadow_1123_398" />
            <feColorMatrix in="SourceAlpha" type="matrix" values="0 0 0 0 0 0 0 0 0 0 0 0 0 0 0 0 0 0 127 0"
                result="hardAlpha" />
            <feOffset dx="-1.08434" dy="1.08434" />
            <feGaussianBlur stdDeviation="1.08434" />
            <feColorMatrix type="matrix" values="0 0 0 0 0.709804 0 0 0 0 0.709804 0 0 0 0 0.709804 0 0 0 0.2 0" />
            <feBlend mode="normal" in2="effect3_dropShadow_1123_398" result="effect4_dropShadow_1123_398" />
            <feBlend mode="normal" in="SourceGraphic" in2="effect4_dropShadow_1123_398" result="shape" />
            <feColorMatrix in="SourceAlpha" type="matrix" values="0 0 0 0 0 0 0 0 0 0 0 0 0 0 0 0 0 0 127 0"
                result="hardAlpha" />
            <feOffset dx="-0.180723" dy="-0.180723" />
            <feGaussianBlur stdDeviation="0.180723" />
            <feComposite in2="hardAlpha" operator="arithmetic" k2="-1" k3="1" />
            <feColorMatrix type="matrix" values="0 0 0 0 0.709804 0 0 0 0 0.709804 0 0 0 0 0.709804 0 0 0 0.5 0" />
            <feBlend mode="normal" in2="shape" result="effect5_innerShadow_1123_398" />
            <feColorMatrix in="SourceAlpha" type="matrix" values="0 0 0 0 0 0 0 0 0 0 0 0 0 0 0 0 0 0 127 0"
                result="hardAlpha" />
            <feOffset dx="0.180723" dy="0.180723" />
            <feGaussianBlur stdDeviation="0.180723" />
            <feComposite in2="hardAlpha" operator="arithmetic" k2="-1" k3="1" />
            <feColorMatrix type="matrix" values="0 0 0 0 1 0 0 0 0 1 0 0 0 0 1 0 0 0 0.3 0" />
            <feBlend mode="normal" in2="effect5_innerShadow_1123_398" result="effect6_innerShadow_1123_398" />
        </filter>
        <linearGradient id="paint0_linear_1123_398" x1="4" y1="4" x2="34" y2="34" gradientUnits="userSpaceOnUse">
            <stop offset="1" stop-color="white" />
            <stop stop-color="#E8E8E8" />
        </linearGradient>
    </defs>
</svg>