<svg width="332" height="332" viewBox="0 0 332 332" fill="none" xmlns="http://www.w3.org/2000/svg">
<g clip-path="url(#clip0_1699_49)">
<path d="M45.7718 70.7701C50.4477 69.0096 55.7252 70.3307 59.0204 74.0864L101.936 123.001H230.064L272.98 74.0864C276.275 70.3307 281.552 69.0096 286.228 70.7701C290.904 72.5306 294 77.0042 294 82.0005V190H332V214H270V113.873L244.52 142.915C242.242 145.512 238.955 147.001 235.5 147.001H96.5C93.0452 147.001 89.7581 145.512 87.4796 142.915L62 113.873V214H0V190H38V82.0005C38 77.0042 41.0958 72.5306 45.7718 70.7701Z" fill="#9EA3A2"/>
<path d="M270 238.002H332V262.002H270V238.002Z" fill="#9EA3A2"/>
<path d="M0 238.002H62V262.002H0V238.002Z" fill="#9EA3A2"/>
<path d="M128 198.002C128 206.838 120.837 214.002 112 214.002C103.163 214.002 96 206.838 96 198.002C96 189.165 103.163 182.002 112 182.002C120.837 182.002 128 189.165 128 198.002Z" fill="#9EA3A2"/>
<path d="M236 198.002C236 206.838 228.837 214.002 220 214.002C211.163 214.002 204 206.838 204 198.002C204 189.165 211.163 182.002 220 182.002C228.837 182.002 236 189.165 236 198.002Z" fill="#9EA3A2"/>
</g>
<defs>
<clipPath id="clip0_1699_49">
<rect width="332" height="332" fill="white"/>
</clipPath>
</defs>
</svg>
