<svg width="480" height="480" viewBox="0 0 480 480" fill="none" xmlns="http://www.w3.org/2000/svg">
<path fill-rule="evenodd" clip-rule="evenodd" d="M175.132 77.838C196.626 77.838 214.051 60.413 214.051 38.919C214.051 17.425 196.626 0 175.132 0C153.637 0 136.213 17.425 136.213 38.919C136.213 60.413 153.637 77.838 175.132 77.838ZM334.63 240C359.174 228.719 376.216 203.917 376.216 175.135C376.216 135.729 344.271 103.783 304.865 103.783C276.085 103.783 251.284 120.823 240.002 145.365C228.72 120.823 203.919 103.783 175.138 103.783C135.732 103.783 103.787 135.729 103.787 175.135C103.787 203.917 120.83 228.719 145.374 240C120.83 251.282 103.787 276.084 103.787 304.866C103.787 344.272 135.732 376.217 175.138 376.217C203.919 376.217 228.72 359.177 240.002 334.636C251.284 359.177 276.085 376.217 304.865 376.217C344.271 376.217 376.216 344.272 376.216 304.866C376.216 276.084 359.174 251.282 334.63 240ZM240.002 275.096C247.119 259.614 259.617 247.117 275.1 240C259.617 232.884 247.119 220.387 240.002 204.905C232.884 220.387 220.386 232.884 204.903 240C220.386 247.117 232.884 259.614 240.002 275.096ZM330.813 38.919C330.813 53.248 319.196 64.865 304.867 64.865C290.537 64.865 278.921 53.248 278.921 38.919C278.921 24.589 290.537 12.973 304.867 12.973C319.196 12.973 330.813 24.589 330.813 38.919ZM38.916 201.081C53.245 201.081 64.862 189.465 64.862 175.135C64.862 160.806 53.245 149.189 38.916 149.189C24.586 149.189 12.97 160.806 12.97 175.135C12.97 189.465 24.586 201.081 38.916 201.081ZM201.086 441.08C201.086 455.41 189.47 467.026 175.14 467.026C160.811 467.026 149.194 455.41 149.194 441.08C149.194 426.751 160.811 415.135 175.14 415.135C189.47 415.135 201.086 426.751 201.086 441.08ZM441.08 330.81C455.409 330.81 467.026 319.193 467.026 304.864C467.026 290.534 455.409 278.918 441.08 278.918C426.75 278.918 415.134 290.534 415.134 304.864C415.134 319.193 426.75 330.81 441.08 330.81ZM58.381 38.92C58.381 49.667 49.669 58.379 38.921 58.379C28.174 58.379 19.462 49.667 19.462 38.92C19.462 28.172 28.174 19.46 38.921 19.46C49.669 19.46 58.381 28.172 58.381 38.92ZM38.921 460.541C49.669 460.541 58.381 451.829 58.381 441.081C58.381 430.334 49.669 421.622 38.921 421.622C28.174 421.622 19.462 430.334 19.462 441.081C19.462 451.829 28.174 460.541 38.921 460.541ZM460.542 441.081C460.542 451.829 451.83 460.541 441.083 460.541C430.335 460.541 421.623 451.829 421.623 441.081C421.623 430.334 430.335 421.622 441.083 421.622C451.83 421.622 460.542 430.334 460.542 441.081ZM441.083 58.379C451.83 58.379 460.542 49.667 460.542 38.92C460.542 28.172 451.83 19.46 441.083 19.46C430.335 19.46 421.623 28.172 421.623 38.92C421.623 49.667 430.335 58.379 441.083 58.379ZM343.783 441.081C343.783 462.575 326.359 480 304.864 480C283.37 480 265.945 462.575 265.945 441.081C265.945 419.586 283.37 402.162 304.864 402.162C326.359 402.162 343.783 419.586 343.783 441.081ZM441.083 214.054C462.577 214.054 480.002 196.63 480.002 175.135C480.002 153.641 462.577 136.217 441.083 136.217C419.589 136.217 402.164 153.641 402.164 175.135C402.164 196.63 419.589 214.054 441.083 214.054ZM77.838 304.866C77.838 326.361 60.413 343.785 38.919 343.785C17.425 343.785 0 326.361 0 304.866C0 283.372 17.425 265.948 38.919 265.948C60.413 265.948 77.838 283.372 77.838 304.866Z" fill="#9EA3A2"/>
</svg>
