<svg width="725" height="370" viewBox="0 0 725 370" fill="none" xmlns="http://www.w3.org/2000/svg">
<g clip-path="url(#clip0_808_1289)">
<path d="M133.61 39.4701C116.651 4.6731 74.5771 -9.84389 39.6351 7.04511C4.69312 23.9331 -9.88487 65.8321 7.07413 100.628L119.133 330.547C130.867 354.62 155.351 369.932 182.222 370C209.095 370.067 233.656 354.881 245.513 330.866L359.027 100.948C376.163 66.2381 361.8 24.2661 326.945 7.20109C292.089 -9.86391 249.942 4.44009 232.805 39.1491L182.808 140.414L133.61 39.4701Z" fill="#9EA3A2"/>
<path d="M605.392 39.4699C593.657 15.3949 569.171 0.0838524 542.301 0.0158524C515.432 -0.0521476 490.867 15.1348 479.012 39.1488L365.497 269.068C354.779 290.775 356.069 316.452 368.909 336.985C381.747 357.518 404.318 370 428.608 370H654.183C678.408 370 700.927 357.583 713.787 337.136C726.642 316.689 728.028 291.091 717.448 269.388L605.392 39.4699Z" fill="#9EA3A2"/>
</g>
<defs>
<clipPath id="clip0_808_1289">
<rect width="725" height="370" fill="white"/>
</clipPath>
</defs>
</svg>
