<svg width="24" height="24" viewBox="-8 -8 88 137" fill="none" xmlns="http://www.w3.org/2000/svg"><path d="M53.03 84.05H40.75c-4.99 0-9.79 1.94-13.32 5.4a18.62 18.62 0 0 0-5.52 13.04c0 4.89 1.99 9.58 5.52 13.04 3.53 3.46 8.33 5.4 13.32 5.4h12.28c4.99 0 9.79-1.94 13.32-5.4a18.62 18.62 0 0 0 5.52-13.04c0-4.89-1.99-9.58-5.52-13.04-3.53-3.46-8.33-5.4-13.32-5.4z" fill="white"/><path d="M51.84 36.39H20.61c-5.37 0-10.52 2.09-14.32 5.82A19.88 19.88 0 0 0 .35 56.24c0 5.27 2.13 10.32 5.93 14.04 3.8 3.72 8.96 5.82 14.32 5.82h31.23c2.66 0 5.29-.51 7.75-1.51a20.5 20.5 0 0 0 6.57-4.28 19.72 19.72 0 0 0 4.39-6.44 19.56 19.56 0 0 0 0-15.2 19.72 19.72 0 0 0-4.39-6.44 20.5 20.5 0 0 0-6.57-4.28 20.68 20.68 0 0 0-7.75-1.51z" fill="white"/><path d="M43.47 14.26C43.47 6.43 49.82.07 57.66.07c7.83 0 14.18 6.35 14.18 14.18 0 7.83-6.35 14.18-14.18 14.18-7.84 0-14.19-6.35-14.19-14.18z" fill="white"/></svg>
