<svg width="111" height="30" viewBox="0 0 111 30" fill="none" xmlns="http://www.w3.org/2000/svg">
<path d="M104.033 7.58984H100.086V21.9227H104.033V7.58984Z" fill="white"/>
<path d="M76.835 21.9219C75.2054 21.9219 73.8633 23.2335 73.8633 24.9485C73.8633 26.6636 75.2054 27.9751 76.835 27.9751C78.4646 27.9751 79.8067 26.6636 79.8067 24.9485C79.8067 23.2335 78.5123 21.9219 76.835 21.9219Z" fill="white"/>
<path d="M92.575 7.63807V8.75129C91.5164 8.02534 90.2644 7.63807 88.7249 7.63807C84.9701 7.63807 81.9375 10.7861 81.9375 14.8045C81.9375 18.8229 84.9701 21.9224 88.7249 21.9224C90.2644 21.9224 91.5164 21.4865 92.575 20.8092V21.9224H96.5219V7.63672H92.575V7.63807ZM92.575 16.9837C91.7085 18.1455 90.5532 18.5814 89.3979 18.5814C87.3284 18.5814 85.8843 16.838 85.8843 14.8045C85.8843 12.771 87.3284 10.9791 89.3979 10.9791C90.5055 10.9791 91.6608 11.3663 92.575 12.5767V16.9837Z" fill="white"/>
<path d="M104.996 2.32944C106.972 2.32944 108.58 3.96621 108.58 5.97945V23.5387C108.58 25.5506 106.973 27.1887 104.996 27.1887H82.6125C82.8682 26.4816 83.0006 25.726 83.0006 24.9528C83.0006 23.2391 82.3687 21.6509 81.22 20.4837C80.2409 19.4879 78.9637 18.8753 77.566 18.716V5.97945C77.566 3.96756 79.173 2.32944 81.1498 2.32944H104.998M104.996 1.58729H81.1485C78.7676 1.58729 76.8359 3.5533 76.8359 5.97945V19.4164C79.9044 19.4164 82.2706 21.8155 82.2706 24.9514C82.2706 26.062 81.9686 27.078 81.4492 27.9295H104.996C107.377 27.9295 109.309 25.9635 109.309 23.5373V5.9781C109.309 3.5533 107.379 1.58594 104.996 1.58594V1.58729Z" fill="white"/>
<path d="M12.8339 17.3653L19.9141 9.62406H13.3321L6.29029 17.4044V1.58594H1V28.3423H6.29029V24.471L9.22359 21.3081L14.0541 28.3423H20.7117L12.8339 17.3653Z" fill="white"/>
<path d="M45.1983 11.9989V9.61328H39.9902V28.341H45.1983V17.3451C46.6994 15.653 48.6828 14.8056 51.4916 14.695V9.61733C48.8325 9.61733 46.8081 10.4634 45.1983 11.9989Z" fill="white"/>
<path d="M22.5299 12.2711C25.397 9.40644 29.6406 8.7628 33.1953 10.6343C33.9982 11.0432 34.7441 11.6288 35.4317 12.2711C37.3819 14.2007 38.2988 16.7739 38.1835 19.3471C37.9543 17.8264 37.2084 16.3651 36.0624 15.1952C33.08 12.1551 28.264 12.1551 25.2817 15.1952C23.2745 17.2421 23.2745 20.6331 25.2817 22.7381C26.0276 23.4978 26.9445 24.024 27.9196 24.1994C25.9693 24.3748 23.9635 23.7312 22.4716 22.2118C19.7768 19.5225 19.7768 15.0778 22.4147 12.3885L22.4716 12.3305L22.5286 12.2725L22.5299 12.2711Z" fill="white"/>
<path d="M35.4306 25.6678C33.7109 27.4219 31.3592 28.4164 28.9506 28.4164C26.5419 28.4164 24.1917 27.4219 22.4137 25.6678C20.694 23.9136 19.7188 21.5158 19.7188 19.0019V18.5337C19.948 20.0544 20.694 21.5738 21.84 22.7437C23.2735 24.2051 25.1654 25.0241 27.2295 25.0241C29.0075 25.0241 30.7273 24.3805 32.0468 23.27C32.2191 23.0945 32.4483 22.9191 32.6205 22.7437L32.6776 22.6857C34.6848 20.5807 34.6848 17.3058 32.6776 15.2588C31.99 14.5572 31.1871 14.0889 30.2689 13.8555H30.7274C32.5623 13.8555 34.2251 14.6152 35.4864 15.9605C38.009 18.5917 38.0672 22.8017 35.6016 25.4924C35.6016 25.4924 35.6016 25.5504 35.5447 25.5504L35.4293 25.6678H35.4306Z" fill="white"/>
<path d="M61.3017 23.908C58.7553 23.908 57.4198 22.5019 56.9229 20.6385C56.7971 20.204 56.6394 19.4039 56.7004 18.2448C56.8275 15.8523 58.2346 13.298 61.8078 13.298C63.9873 13.298 65.8289 14.1008 67.2809 15.6837C68.7118 17.2436 69.3345 19.111 69.5876 20.1487C69.6618 19.613 69.6962 19.072 69.6909 18.5309C69.6909 13.0336 66.0037 9.4375 61.0526 9.4375C55.5888 9.4375 51.8672 13.4074 51.8672 18.8991C51.8672 24.391 55.6245 28.3312 61.1904 28.3312C65.279 28.3312 68.533 25.9887 69.471 22.5708H64.235C63.6905 23.4627 62.7127 23.9094 61.3017 23.9094V23.908Z" fill="white"/>
<path d="M63.0541 14.2188C63.9484 14.776 64.5194 15.7718 64.6983 17.1549H57.675C57.5518 17.6205 57.5081 18.0321 57.4949 18.2898C57.4485 19.1642 57.5399 19.8024 57.63 20.1964H68.7776C68.0913 17.5354 66.2617 14.7883 63.0541 14.2188Z" fill="white"/>
</svg>
