<svg width="20" height="21" viewBox="0 0 20 21" fill="none" xmlns="http://www.w3.org/2000/svg">
<path fill-rule="evenodd" clip-rule="evenodd" d="M19.3288 13.9836C19.3771 17.4305 16.6779 20.2509 13.3526 20.2509L9.6665 20.2465C8.4788 20.2456 7.51683 19.2496 7.51683 18.0224C7.51683 16.7942 8.48057 15.7983 9.66909 15.7983H13.3113C14.2147 15.7983 14.9821 15.1219 15.0183 14.142C15.0544 13.1621 14.2931 12.3531 13.3526 12.3531H6.06731C2.7877 12.3531 0.0506578 9.66176 0.000705441 6.27266C-0.0501082 2.82306 2.65076 0 5.97688 0H16.1009C17.2911 0 18.2557 0.996796 18.2557 2.22677C18.2557 3.45674 17.2911 4.45353 16.1009 4.45353H6.01739C5.11393 4.45353 4.34656 5.12993 4.31039 6.10982C4.27422 7.08969 5.03556 7.89871 5.97605 7.89871H13.257C16.5392 7.89871 19.2814 10.5918 19.3288 13.9836ZM5.36886 18.0313C5.36886 19.2572 4.40719 20.2509 3.22091 20.2509C2.03463 20.2509 1.07296 19.2572 1.07296 18.0313C1.07296 16.8054 2.03463 15.8116 3.22091 15.8116C4.40719 15.8116 5.36886 16.8054 5.36886 18.0313Z" fill="white"/>
</svg>
