<svg width="413" height="293" viewBox="0 0 413 293" fill="none" xmlns="http://www.w3.org/2000/svg">
<path d="M124.088 263.493C111.851 294.869 71.6589 303.027 47.9008 279.181C3.51068 234.716 -13.1021 166.404 11.1919 104.009C35.4859 41.6141 94.9704 1.8105 158.385 0.0175469C191.075 -0.878933 213.672 32.739 201.793 63.3986L123.998 263.582L124.088 263.493Z" fill="white"/>
<path d="M229.693 263.493C217.397 294.869 177.008 303.027 153.134 279.181C108.528 234.716 91.8341 166.404 116.246 104.009C140.659 41.6141 200.434 1.8105 264.157 0.0175469C297.007 -0.878933 319.714 32.739 307.777 63.3986L229.603 263.582L229.693 263.493Z" fill="white"/>
<path d="M331.693 263.493C319.397 294.869 279.008 303.027 255.134 279.181C210.528 234.716 193.834 166.404 218.246 104.009C242.659 41.6141 302.434 1.8105 366.157 0.0175469C399.007 -0.878933 421.714 32.739 409.777 63.3986L331.603 263.582L331.693 263.493Z" fill="white"/>
</svg>
